<?xml version="1.0" encoding="UTF-8"?>
<svg xmlns="http://www.w3.org/2000/svg" xmlns:xlink="http://www.w3.org/1999/xlink" width="16pt" height="16pt" viewBox="0 0 16 16" version="1.1">
<defs>
<clipPath id="clip1">
  <path d="M 1 0.667969 L 15 0.667969 L 15 15.335938 L 1 15.335938 Z M 1 0.667969 "/>
</clipPath>
</defs>
<g id="surface1">
<g clip-path="url(#clip1)" clip-rule="nonzero">
<path style=" stroke:none;fill-rule:nonzero;fill:rgb(100%,100%,100%);fill-opacity:1;" d="M 13.980469 3.890625 C 12.441406 3.890625 11.1875 2.636719 11.1875 1.097656 C 11.1875 0.859375 10.992188 0.667969 10.757812 0.667969 L 8.453125 0.667969 C 8.21875 0.667969 8.023438 0.859375 8.023438 1.097656 L 8.023438 10.53125 C 8.023438 11.4375 7.289062 12.171875 6.382812 12.171875 C 5.480469 12.171875 4.746094 11.4375 4.746094 10.53125 C 4.746094 9.625 5.480469 8.890625 6.382812 8.890625 C 6.621094 8.890625 6.8125 8.699219 6.8125 8.460938 L 6.8125 6.160156 C 6.8125 5.921875 6.621094 5.730469 6.382812 5.730469 C 3.738281 5.730469 1.582031 7.882812 1.582031 10.53125 C 1.582031 13.179688 3.738281 15.332031 6.382812 15.332031 C 9.035156 15.332031 11.1875 13.179688 11.1875 10.53125 L 11.1875 6.355469 C 12.042969 6.8125 12.996094 7.046875 13.980469 7.046875 C 14.214844 7.046875 14.410156 6.859375 14.410156 6.617188 L 14.410156 4.320312 C 14.410156 4.078125 14.214844 3.890625 13.980469 3.890625 Z M 13.550781 6.171875 C 12.632812 6.09375 11.757812 5.777344 11.007812 5.230469 C 10.878906 5.140625 10.703125 5.128906 10.558594 5.199219 C 10.417969 5.273438 10.328125 5.421875 10.328125 5.582031 L 10.328125 10.53125 C 10.328125 12.707031 8.558594 14.472656 6.382812 14.472656 C 4.210938 14.472656 2.441406 12.707031 2.441406 10.53125 C 2.441406 8.5 3.980469 6.824219 5.953125 6.609375 L 5.953125 8.066406 C 4.78125 8.273438 3.886719 9.300781 3.886719 10.53125 C 3.886719 11.910156 5.007812 13.03125 6.382812 13.03125 C 7.761719 13.03125 8.882812 11.910156 8.882812 10.53125 L 8.882812 1.527344 L 10.351562 1.527344 C 10.550781 3.199219 11.878906 4.527344 13.550781 4.722656 Z M 13.550781 6.171875 "/>
</g>
</g>
</svg>
